<?xml version="1.0" encoding="UTF-8"?>
<svg xmlns="http://www.w3.org/2000/svg" viewBox="0 0 850 200">
  <path d="M111.48,137.19l-1.2.91-4.66,5.36-3.31,4.58-12.03-.52h-39.39l.9-.52v-7.58l-.9-6.67,1.05.13,1.8-.52,2.1,1.05,5.11-.26v-64.58l-.75-2.88-9.17.65-1.05-.39.6-1.44v-7.58l-.6-6.93,50.96,2.35,2.71,3.79,7.82,8.5v72.55ZM95.7,133.66l-2.1-22.88-.9-5.36,1.35-.39-1.65-13.07v-9.28l1.5-17.12h-17.44l1.05,8.24v60.39h9.62l8.57-.52Z" fill="#fff"/>
  <path d="M740.17,133.92l-1.35-1.83,1.05-1.31v-16.99l-1.65-.92.75-.65v-6.67l-1.05-1.31.75-3.53v-48.37h57.27v3.14l1.95,7.32v3.53l-.45.91,2.56,19.74-.45.65-1.05.52-9.32-.52h-3.91l-1.05.91,3.61,15.03,6.31,21.44,1.5,6.93-.45.52,1.05.92,1.05,5.36-.3,1.83,1.35,1.31,1.2,7.19h-15.33l-6.92-17.52-2.1-6.41-6.31-25.88-2.25-10.98h-11.57l2.41,28.5v10.72l.45,8.89-1.5,11.9-14.73.52-1.35-1.18-.15-2.22v-11.5ZM740.17,145.29l-.15.13v-.26l.15.13ZM782.41,75.36l-.3-3.79.3-4.71h-27.96l.9,3.92v2.75l-.9,1.83h27.96Z" fill="#fff"/>
  <path d="M727.84,138.89l.45,5.75h-52.31l-2.41-43.01v-31.76l-1.95-2.74,1.2-1.31v-14.51h52.31l.6,1.57v6.14l-.45,1.31,1.8,6.8h-10.52l-25.86,1.18-1.2.65-.15,2.35-1.65.78,1.8,16.73,9.32-.52,5.41.52,10.07,1.83v5.36l-1.05,3.66,1.05,1.83v2.74l-24.8,1.18-.6,1.31-.75,4.58v3.66l.75,1.31v11.37l1.8.78h24.5l3.61-.91,10.82-1.57-1.8,12.94Z" fill="#fff"/>
  <path d="M310.07,149.74l-4.96-18.04h-24.8l-3.46,17.39h-13.98l10.97-70.33.75-.26,1.8-8.89,2.86-8.5.75-7.58h14.43l6.16-.39,1.05,2.88-.15,2.88.9.65,3.16,9.67,3.91,15.03,8.27,38.56,4.96,26.93h-12.63ZM301.95,116.27l-10.37-41.05v9.28l-7.22,31.76h17.59Z" fill="#fff"/>
  <path d="M392.15,110.39l-.45.52v4.84l-.45,2.48.9,1.05v1.57l-.6-.13-.3,2.88.6.52-.9,7.06v7.84l-1.05,1.31v7.97l-.9,1.7h-11.58l-2.56-.78-1.65-.91v-35.95l1.2-15.69-3.31,9.41-1.2,6.01-2.25,5.62-.75,6.67-2.41,1.05-2.25-.52-2.1-7.45-9.62-23.14,1.2,20.92v20.92l-1.5,11.9-.6,1.18h-12.78l-2.71-7.45V57.97l2.25-4.97,1.2-.78,10.37-.39,12.33,23.66,2.41,7.84v-.91l1.2-2.48,3.91-16.21,1.65-1.44,4.06-10.07h14.58l3.01,21.7h.45v.65l-.75.65.9,2.61v12.81l.9,1.44-1.05,2.22.6,16.08Z" fill="#fff"/>
  <path d="M465.36,122.68v25.36h-58.63l-.9-1.31v-1.44l.75-2.48v-35.69l.6-.52,4.96.52h10.07v26.8l1.05.78h8.57l1.05-.78.45.52h16.08l-.9-4.57v-17.12l-26.31-14.38-14.13-8.89h-1.05l-1.05-2.48v-4.84l-1.05-10.85v-19.48h40.74l17.74-.52v33.07l-1.2.39-8.72-.39-4.51.39-.9-.78v-18.82l-1.95-1.05-4.51-.78h-2.56l-1.2,1.18h-16.69v6.67l.9,8.76,31.72,18.04,11.42,5.88v18.3l.15.52Z" fill="#fff"/>
  <path d="M594.8,138.89l.45,5.75h-52.31l-2.41-43.01v-31.76l-1.95-2.74,1.2-1.31v-14.51h52.31l.6,1.57v6.14l-.45,1.31,1.8,6.8h-10.52l-25.86,1.18-1.2.65-.15,2.35-1.65.78,1.8,16.73,9.32-.52,5.41.52,10.07,1.83v5.36l-1.05,3.66,1.05,1.83v2.74l-24.8,1.18-.6,1.31-.75,4.58v3.66l.75,1.31v11.37l1.8.78h24.5l3.61-.91,10.82-1.57-1.8,12.94Z" fill="#fff"/>
  <path d="M531.21,148.82l-5.86-.26-2.25.39-1.35-.78-5.86.78h-37.58v-5.88l-1.2-4.58V53.14l-1.35-.52h51.26l3.16,1.05v13.86l-2.41-.91h-28.86l-6.16.26-.9.78v9.15l.75,4.97v9.02l1.2.91h15.03l9.77-.91.3,5.62-.6.52.75,9.28h-27.21l1.8,8.5v10.72l-.45,4.18.6,5.62h37.43v13.6Z" fill="#fff"/>
  <path d="M661.4,54.84l-20.9,37.39.6,4.31,1.95,7.97,14.73,42.75h-14.58l-13.68-41.7-6.31,10.07v30.46h-17.74l1.95-32.42v-35.82l.75-1.18v-7.84l-1.2-15.16h16.84v32.55l19.99-32.03,7.22-.26,6.16.39,4.21.52Z" fill="#fff"/>
  <path id="E-4" d="M253.85,148.82l-5.86-.26-2.25.39-1.35-.78-5.86.78h-37.58v-5.88l-1.2-4.58V53.14l-1.35-.52h51.26l3.16,1.05v13.86l-2.41-.91h-28.86l-6.16.26-.9.78v9.15l.75,4.97v9.02l1.2.91h15.03l9.77-.91.3,5.62-.6.52.75,9.28h-27.21l1.8,8.5v10.72l-.45,4.18.6,5.62h37.43v13.6Z" fill="#fff"/>
  <path d="M186.35,72.48l-.6,2.22v13.33l-13.38.91,1.8,10.72.6.39,6.01,24.31-.45,1.57,5.11,21.83h-13.83l-16.08-59.22-2.1.39h-4.81l-2.41-.39-1.65.65,1.35,27.32-.9,1.83.9,2.88v1.44l-.45,1.18.9,4.44-1.35.78,1.35,1.7-1.5,4.84v7.97l.45,3.53h-15.93l.45-4.18v-43.66l-1.8-20.26.6-11.9v-13.99l.3-1.96h55.62l1.35,1.57-.45,1.44v17.78l.9.52ZM169.66,69.35l-.3-3.01h-25.1v6.14l25.1.52.3-3.66Z" fill="#fff"/>
  <polygon points="850 100 850 200 70 200 90 180 830 180 830 120 850 100" fill="#fff"/>
  <polygon points="0 100 0 0 780 0 760 20 20 20 20 80 0 100" fill="#fff"/>
</svg>