<?xml version="1.0" encoding="UTF-8"?>
<svg xmlns="http://www.w3.org/2000/svg" viewBox="0 0 1000 1000">
    <g id="Circle">
        <path d="M500,25c64.14,0,126.34,12.56,184.88,37.32,56.56,23.92,107.36,58.18,150.99,101.81,43.63,43.63,77.88,94.43,101.81,150.99,24.76,58.54,37.32,120.75,37.32,184.88s-12.56,126.34-37.32,184.88c-23.92,56.56-58.18,107.36-101.81,150.99-43.63,43.63-94.43,77.88-150.99,101.81-58.54,24.76-120.75,37.32-184.88,37.32s-126.34-12.56-184.88-37.32c-56.56-23.92-107.36-58.18-150.99-101.81-43.63-43.63-77.88-94.43-101.81-150.99-24.76-58.54-37.32-120.75-37.32-184.88s12.56-126.34,37.32-184.88c23.92-56.56,58.18-107.36,101.81-150.99,43.63-43.63,94.43-77.88,150.99-101.81,58.54-24.76,120.75-37.32,184.88-37.32M500,0C223.86,0,0,223.86,0,500s223.86,500,500,500,500-223.86,500-500S776.14,0,500,0h0Z"
              fill="#fff"/>
    </g>
    <g id="Text">
        <path id="K"
              d="M875,319.73l-79.04,152.53,2.27,17.6,7.39,32.53,55.72,174.4h-55.16l-51.74-170.13-23.88,41.07v124.27h-67.1l7.39-132.27v-146.13l2.84-4.8v-32l-4.55-61.87h63.69v132.8l75.63-130.67,27.29-1.07,23.31,1.6,15.92,2.13Z"
              fill="#fff"/>
        <path id="S"
              d="M629.36,596.53v103.47h-221.76l-3.41-5.33v-5.87l2.84-10.13v-145.6l2.27-2.13,18.76,2.13h38.1v109.33l3.98,3.2h32.41l3.98-3.2,1.71,2.13h60.84l-3.41-18.67v-69.87l-99.51-58.67-53.45-36.27h-3.98l-3.98-10.13v-19.73l-3.98-44.27v-79.47h154.1l67.1-2.13v134.93l-4.55,1.6-32.98-1.6-17.06,1.6-3.41-3.2v-76.8l-7.39-4.27-17.06-3.2h-9.67l-4.55,4.8h-63.12v27.2l3.41,35.73,119.98,73.6,43.21,24v74.67l.57,2.13Z"
              fill="#fff"/>
        <path id="D"
              d="M357.57,655.73l-4.55,3.73-17.63,21.87-12.51,18.67-45.49-2.13h-148.98l3.41-2.13v-30.93l-3.41-27.2,3.98.53,6.82-2.13,7.96,4.27,19.33-1.07v-263.47l-2.84-11.73-34.69,2.67-3.98-1.6,2.27-5.87v-30.93l-2.27-28.27,192.76,9.6,10.23,15.47,29.57,34.67v296ZM297.86,641.33l-7.96-93.33-3.41-21.87,5.12-1.6-6.25-53.33v-37.87l5.69-69.87h-65.96l3.98,33.6v246.4h36.39l32.41-2.13Z"
              fill="#fff"/>
    </g>
</svg>